<?xml version="1.0" encoding="iso-8859-1"?>
<!-- Generator: Adobe Illustrator 19.0.0, SVG Export Plug-In . SVG Version: 6.00 Build 0)  -->
<svg version="1.1" id="Layer_1" xmlns="http://www.w3.org/2000/svg" xmlns:xlink="http://www.w3.org/1999/xlink" x="0px" y="0px"
	 viewBox="0 0 473.935 473.935" style="enable-background:new 0 0 473.935 473.935;" xml:space="preserve">
<circle style="fill:#FFC200;" cx="236.967" cy="236.967" r="236.967"/>
<g>
	<path style="fill:#97A0A0;" d="M284.002,142.925l9.601,11.633l0.254-0.213c10.75-9.253,12.943-11.147,24.774,3.214l9.931,12.022
		c8.801,10.664,8.479,11.248,3.046,21.437l-49.964,72.381c-2.133,3.091-0.176,4.752,2.881,8.266
		c1.235,1.403,2.668,3.042,3.697,4.311l1.594,1.931l30.761-25.366l1.946,28.393l-4.378,3.611l55.498,67.274
		c2.63,3.188,2.155,7.929-1.014,10.559l-21.238,17.504c-3.181,2.638-7.936,2.178-10.552-1.003l-55.506-67.266l-4.576,3.764
		l-28.063-6.832l30.548-25.212l-1.609-1.931c-1.71-2.069-2.698-3.199-3.543-4.18c-6.541-7.506-9.47-9.991-4.296-17.444
		l50.323-72.759c2.881-5.422,3.046-5.714-2.133-12l-9.931-12.022c-6.316-7.659-7.375-6.739-12.658-2.208l-0.382,0.329l8.872,10.758
		c4.165,5.036,3.435,12.569-1.602,16.73L173.133,298.449c-5.051,4.165-12.576,3.442-16.737-1.616l-8.842-10.69l-9.639,7.966
		c0,0-2.155,0.015-4.101-2.339c-1.938-2.361-1.325-4.254-1.325-4.254l9.639-7.951l-9.609-11.671
		c-4.172-5.044-3.435-12.569,1.601-16.73l133.163-109.855C272.324,137.152,279.86,137.877,284.002,142.925L284.002,142.925z
		 M148.736,248.163l5.852,7.038l117.537-97.612l-5.841-7.046L148.736,248.163z"/>
	<path style="fill:#1CAAB9;" d="M284.002,142.925l23.884,28.946c4.165,5.036,3.435,12.569-1.602,16.73L173.133,298.449
		c-5.051,4.165-12.576,3.442-16.737-1.616l-8.842-10.69l-5.422-6.578l-9.609-11.671c-4.172-5.044-3.435-12.569,1.602-16.73
		l133.163-109.855C272.324,137.152,279.86,137.877,284.002,142.925L284.002,142.925z"/>
	<path style="fill:#3EB5B5;" d="M284.002,142.925l12.707,15.405L144.905,282.924l-2.776-3.36l-9.609-11.671
		c-4.172-5.044-3.435-12.569,1.601-16.73l133.163-109.855C272.324,137.152,279.86,137.877,284.002,142.925L284.002,142.925z"/>
	<path style="fill:#97A0A0;" d="M293.607,154.562l0.254-0.213c10.75-9.253,12.943-11.147,24.774,3.214l9.931,12.022
		c8.801,10.664,8.479,11.248,3.046,21.437l-49.968,72.377c-2.133,3.091-0.176,4.752,2.881,8.266
		c1.235,1.403,2.668,3.042,3.697,4.311l1.594,1.931l-6.571,5.422l-1.609-1.931c-1.71-2.069-2.698-3.199-3.543-4.18
		c-6.541-7.506-9.47-9.991-4.296-17.444l50.323-72.759c2.881-5.422,3.046-5.714-2.133-12l-9.931-12.022
		c-6.316-7.659-7.375-6.739-12.659-2.208l-0.382,0.329L293.607,154.562z"/>
	<path style="fill:#1CAAB9;" d="M131.614,159.793c-10.413-2.63-21.889-0.468-30.761,6.847l0,0
		c-14.784,12.198-16.905,34.275-4.707,49.051l21.852,26.477l48.55-40.045l5.212-4.303l38.907-32.09l9.624-7.944l13.257-10.926
		l5.613-4.625l22.851-18.877l-45.156-54.75c-6.47-7.835-18.155-8.954-25.994-2.5l0,0c-7.835,6.462-8.962,18.166-2.492,25.994
		l12.505,15.173c-3.903,0.138-7.805,1.519-11.042,4.18l0,0c-1.609,1.336-2.937,2.881-3.978,4.584l-9.583-11.615
		c-12.198-14.799-34.26-16.905-49.044-4.707l0,0c-14.784,12.191-16.898,34.267-4.7,49.044L131.614,159.793L131.614,159.793z"/>
	<path style="fill:#B14D26;" d="M289.813,277.906c0,0,24.849-25.687,30.761-25.366c5.905,0.329,4.786,25.549,1.946,28.393
		c-2.836,2.844-4.378,3.611-4.378,3.611l55.498,67.274c2.63,3.188,2.155,7.929-1.014,10.559l-21.238,17.504
		c-3.181,2.638-7.936,2.178-10.552-1.003l-55.502-67.266c0,0-0.483-0.329-4.576,3.764c-4.101,4.101-28.063-1.059-28.063-6.832
		c0-5.774,30.548-25.212,30.548-25.212L289.813,277.906z"/>
	<path style="fill:#C15E28;" d="M362.83,370.452l-11.446,9.429c-3.181,2.638-7.936,2.178-10.552-1.003l-55.498-67.266
		c0,0-0.483-0.329-4.576,3.764c-4.101,4.101-28.063-1.059-28.063-6.832c0-5.774,30.548-25.212,30.548-25.212l3.42-2.821
		L362.83,370.452z"/>
</g>
<g>
</g>
<g>
</g>
<g>
</g>
<g>
</g>
<g>
</g>
<g>
</g>
<g>
</g>
<g>
</g>
<g>
</g>
<g>
</g>
<g>
</g>
<g>
</g>
<g>
</g>
<g>
</g>
<g>
</g>
</svg>
